<svg version="1.1" xmlns="http://www.w3.org/2000/svg" xmlns:xlink="http://www.w3.org/1999/xlink" x="0" y="0" width="112.667" height="31.5" viewBox="0 0 112.667 31.5" enable-background="new 0 0 112.667 31.5" ><path fill="#47C0E8" stroke="#2DAFD3" stroke-miterlimit="10" d="M111,26.667c0,2.209-1.791,4-4,4H85.5c-2.209,0-4-1.791-4-4v-22c0-2.209,1.791-4,4-4H107c2.209,0,4,1.791,4,4V26.667z"/><path fill="none" stroke="#29B6E4" stroke-miterlimit="10" d="M78.667,26.667c0,2.209-1.791,4-4,4h-36.5c-2.209,0-4-1.791-4-4v-22c0-2.209,1.791-4,4-4h36.5c2.209,0,4,1.791,4,4V26.667z"/><path fill="none" stroke="#29B6E4" stroke-miterlimit="10" d="M31,26.667c0,2.209-1.791,4-4,4H5.5c-2.209,0-4-1.791-4-4v-22c0-2.209,1.791-4,4-4H27c2.209,0,4,1.791,4,4V26.667z"/><line fill="none" stroke="#29B6E4" stroke-miterlimit="10" x1="7.083" y1="15.667" x2="25.417" y2="15.667"/><line fill="none" stroke="#FDFFFF" stroke-miterlimit="10" x1="87.917" y1="15.667" x2="106.25" y2="15.667"/><line fill="none" stroke="#FDFFFF" stroke-miterlimit="10" x1="97.083" y1="6.5" x2="97.083" y2="24.833"/></svg>
