<svg version="1.1" id="图层_1" xmlns="http://www.w3.org/2000/svg" xmlns:xlink="http://www.w3.org/1999/xlink" x="0" y="0" width="66" height="66" viewBox="223 223 66 66" enable-background="new 223 223 66 66" xml:space="preserve"><path fill="#FFCF77" d="M269.924,271.213c-1.184-0.187-1.211-3.415-1.211-3.415s3.479-3.415,4.238-8.007c2.04,0,3.3-4.882,1.26-6.6c0.085-1.808,2.622-14.194-10.222-14.194c-12.844,0-10.307,12.386-10.222,14.194c-2.04,1.718-0.78,6.6,1.26,6.6c0.758,4.592,4.238,8.007,4.238,8.007s-0.027,3.228-1.211,3.415c-3.814,0.602-18.058,6.83-18.058,13.66h23.993h23.993C287.981,278.043,273.738,271.815,269.924,271.213z M245.497,272.302c2.755-1.696,6.1-3.268,8.844-4.213c-0.984-1.402-2.08-3.308-2.77-5.565c-0.963-0.785-1.746-1.908-2.249-3.287c-0.504-1.381-0.695-2.927-0.538-4.354c0.113-1.024,0.405-1.979,0.853-2.817c-0.272-2.911-0.463-8.625,3.277-12.792c1.45-1.616,3.284-2.778,5.48-3.479c-0.392-4.046-2.447-8.796-10.4-8.796c-12.844,0-10.307,12.386-10.222,14.194c-2.04,1.718-0.78,6.6,1.26,6.6c0.758,4.592,4.238,8.007,4.238,8.007s-0.027,3.228-1.211,3.415c-3.814,0.602-18.058,6.83-18.058,13.66h20.594C244.888,272.684,245.188,272.493,245.497,272.302z"/></svg>
