<svg version="1.1" xmlns="http://www.w3.org/2000/svg" xmlns:xlink="http://www.w3.org/1999/xlink" x="0px" y="0px" width="217" height="237" viewBox="0 0 217 237" enable-background="new 0 0 217 237" xml:space="preserve"><g><g><defs><path id="SVGID_1_" d="M135.208,152.604c4.549-4.541,11.915-4.541,16.456,0l57.607,57.607c4.549,4.541,4.549,11.915,0,16.456c-4.541,4.549-11.915,4.549-16.456,0l-57.607-57.607C130.667,164.519,130.667,157.152,135.208,152.604L135.208,152.604z"/></defs><use xlink:href="#SVGID_1_"  overflow="visible" fill-rule="evenodd" clip-rule="evenodd" fill="#AAAAAA"/><clipPath id="SVGID_2_"><use xlink:href="#SVGID_1_"  overflow="visible"/></clipPath></g><g><defs><path id="SVGID_3_" d="M151.281,168.677c7.19-7.19,18.845-7.19,26.035,0l32.544,32.544c7.19,7.19,7.19,18.845,0,26.035c-7.19,7.19-18.845,7.19-26.035,0l-32.544-32.544C144.091,187.522,144.091,175.867,151.281,168.677L151.281,168.677z"/></defs><use xlink:href="#SVGID_3_"  overflow="visible" fill-rule="evenodd" clip-rule="evenodd" fill="#9E9E9E"/><clipPath id="SVGID_4_"><use xlink:href="#SVGID_3_"  overflow="visible"/></clipPath></g></g><g><defs><path id="SVGID_5_" d="M82.5,20.734c44.445,0,80.474,36.036,80.474,80.481c0,44.445-36.029,80.474-80.474,80.474c-44.452,0-80.481-36.029-80.481-80.474C2.019,56.77,38.048,20.734,82.5,20.734L82.5,20.734z"/></defs><defs><path id="SVGID_6_" d="M82.501,32.635c37.874,0,68.58,30.699,68.58,68.58c0,37.874-30.706,68.58-68.58,68.58c-37.881,0-68.58-30.706-68.58-68.58C13.921,63.334,44.619,32.635,82.501,32.635L82.501,32.635z"/></defs>
	<defs>
		<ellipse id="SVGID_7_" cx="82.217" cy="101.164" rx="68.954" ry="68.237"/>
	</defs>
	<use xlink:href="#SVGID_5_"  overflow="visible" fill-rule="evenodd" clip-rule="evenodd" fill="#F7F7F7"/>
	<use xlink:href="#SVGID_7_"  overflow="visible" fill="#B5B5B5"/>
	<clipPath id="SVGID_8_">
		<use xlink:href="#SVGID_5_"  overflow="visible"/>
	</clipPath>
	<clipPath id="SVGID_9_" clip-path="url(#SVGID_8_)">
		<use xlink:href="#SVGID_6_"  overflow="visible"/>
	</clipPath>
	<clipPath id="SVGID_10_" clip-path="url(#SVGID_9_)">
		<use xlink:href="#SVGID_7_"  overflow="visible"/>
	</clipPath>
	<rect x="32.096" y="13.381" clip-path="url(#SVGID_10_)" fill="#FFFFFF" width="99.707" height="148.328"/>
	
		<use xlink:href="#SVGID_5_"  overflow="visible" fill-rule="evenodd" clip-rule="evenodd" fill="none" stroke="#E5E5E5" stroke-miterlimit="10"/>
</g>
<rect x="32.096" y="13.381" fill="#FFFFFF" width="99.707" height="112.495"/>
<g>
	<path fill="#CBCBCB" d="M126.094,18.614c-0.536,0-0.971-0.434-0.971-0.971v-0.97c0-0.536,0.436-0.971,0.971-0.971"/>
	<path fill="#CBCBCB" d="M126.094,26.867c-0.536,0-0.971-0.435-0.971-0.971v-0.971c0-0.537,0.436-0.971,0.971-0.971"/>
	<path fill="#CBCBCB" d="M126.094,35.12c-0.536,0-0.971-0.435-0.971-0.971v-0.97c0-0.537,0.436-0.971,0.971-0.971"/>
	<path fill="#CBCBCB" d="M126.094,43.372c-0.536,0-0.971-0.435-0.971-0.971V41.43c0-0.536,0.436-0.97,0.971-0.97"/>
	<path fill="#CBCBCB" d="M126.094,51.624c-0.536,0-0.971-0.434-0.971-0.97v-0.971c0-0.536,0.436-0.97,0.971-0.97"/>
	<path fill="#CBCBCB" d="M126.094,59.877c-0.536,0-0.971-0.434-0.971-0.97v-0.971c0-0.536,0.436-0.97,0.971-0.97"/>
	<path fill="#CBCBCB" d="M126.094,68.129c-0.536,0-0.971-0.434-0.971-0.97v-0.971c0-0.536,0.436-0.97,0.971-0.97"/>
	<path fill="#CBCBCB" d="M126.094,76.382c-0.536,0-0.971-0.434-0.971-0.971V74.44c0-0.536,0.436-0.971,0.971-0.971"/>
	<path fill="#CBCBCB" d="M126.094,84.634c-0.536,0-0.971-0.434-0.971-0.971v-0.97c0-0.536,0.436-0.971,0.971-0.971"/>
	<path fill="#CBCBCB" d="M126.094,92.887c-0.536,0-0.971-0.434-0.971-0.971v-0.971c0-0.537,0.436-0.971,0.971-0.971"/>
	<path fill="#CBCBCB" d="M126.094,101.14c-0.536,0-0.971-0.435-0.971-0.971v-0.97c0-0.537,0.436-0.971,0.971-0.971"/>
	<path fill="#CBCBCB" d="M126.094,109.391c-0.536,0-0.971-0.434-0.971-0.97v-0.971c0-0.536,0.436-0.971,0.971-0.971"/>
	<path fill="#CBCBCB" d="M126.094,117.644c-0.536,0-0.971-0.434-0.971-0.971v-0.971c0-0.536,0.436-0.97,0.971-0.97"/>
	<path fill="#CBCBCB" d="M126.094,125.897c-0.536,0-0.971-0.434-0.971-0.97v-0.971c0-0.536,0.436-0.971,0.971-0.971"/>
	<path fill="#CBCBCB" d="M126.094,134.149c-0.536,0-0.971-0.434-0.971-0.971v-0.971c0-0.536,0.436-0.97,0.971-0.97"/>
	<path fill="#CBCBCB" d="M126.094,142.402c-0.536,0-0.971-0.434-0.971-0.971v-0.97c0-0.536,0.436-0.971,0.971-0.971"/>
	<path fill="#CBCBCB" d="M126.094,150.655c-0.536,0-0.971-0.434-0.971-0.971v-0.971c0-0.536,0.436-0.971,0.971-0.971"/>
</g>
<rect x="40.528" y="41.915" fill="#666666" width="75.52" height="1.457"/>
<line fill="#666666" x1="40.528" y1="47.175" x2="40.528" y2="45.719"/>
<line fill="#666666" x1="116.048" y1="45.719" x2="116.048" y2="47.175"/>
<rect x="40.528" y="49.524" fill="#666666" width="75.52" height="1.456"/>
<rect x="40.528" y="57.131" fill="#666666" width="75.52" height="1.456"/>
<rect x="40.528" y="64.738" fill="#666666" width="75.52" height="1.457"/>
<rect x="40.528" y="72.347" fill="#666666" width="75.52" height="1.456"/>
<rect x="40.528" y="79.954" fill="#666666" width="75.52" height="1.456"/>
<rect x="40.528" y="87.562" fill="#666666" width="75.52" height="1.457"/>
<rect x="40.528" y="95.17" fill="#666666" width="75.52" height="1.456"/>
<line fill="#666666" x1="40.528" y1="100.43" x2="40.528" y2="98.974"/>
<line fill="#666666" x1="116.048" y1="98.974" x2="116.048" y2="100.43"/>
<rect x="40.528" y="102.777" fill="#666666" width="75.52" height="1.457"/>
<rect x="40.528" y="110.386" fill="#666666" width="37.76" height="1.456"/>
</svg>
