<svg version="1.1" xmlns="http://www.w3.org/2000/svg" xmlns:xlink="http://www.w3.org/1999/xlink" x="0" y="0" width="66" height="66" viewBox="0 0 200 100" enable-background="new 0 0 200 100" xml:space="preserve"><circle fill="#9EDE8A" cx="79.123" cy="35.248" r="28.669"/><path fill="#9EDE8A" stroke="#FFFFFF" stroke-width="2" stroke-miterlimit="10" d="M91.456,50.458c0,2.093-1.88,3.789-4.199,3.789h-16.27c-2.319,0-4.199-1.697-4.199-3.789V22.037c0-2.093,1.88-3.789,4.199-3.789h16.27c2.319,0,4.199,1.697,4.199,3.789V50.458z"/><line fill="#9EDE8A" stroke="#FFFFFF" stroke-width="2" stroke-miterlimit="10" x1="71.456" y1="29.915" x2="86.623" y2="29.915"/><line fill="#9EDE8A" stroke="#FFFFFF" stroke-width="2" stroke-miterlimit="10" x1="71.456" y1="36.665" x2="86.623" y2="36.665"/><line fill="#9EDE8A" stroke="#FFFFFF" stroke-width="2" stroke-miterlimit="10" x1="71.456" y1="43.415" x2="86.623" y2="43.415"/><line fill="#9EDE8A" stroke="#FFFFFF" stroke-width="2" stroke-miterlimit="10" x1="74.956" y1="18.248" x2="74.956" y2="14.581"/><line fill="#9EDE8A" stroke="#FFFFFF" stroke-width="2" stroke-miterlimit="10" x1="80.123" y1="18.248" x2="80.123" y2="14.581"/><line fill="#9EDE8A" stroke="#FFFFFF" stroke-width="2" stroke-miterlimit="10" x1="85.123" y1="18.248" x2="85.123" y2="14.581"/></svg>
