<svg version="1.1" id="图层_1" xmlns="http://www.w3.org/2000/svg" xmlns:xlink="http://www.w3.org/1999/xlink" x="0px" y="0px" width="66px" height="66px" viewBox="0 0 66 66" enable-background="new 0 0 66 66" xml:space="preserve"><path fill="#9EDE8A" d="M33,0.564c17.859,0,32.337,14.291,32.337,32.288S50.859,65.437,33,65.437S0.663,50.847,0.663,32.851S15.14,0.564,33,0.564z"/><path fill="#9EDE8A" stroke="#FFFFFF" stroke-width="2" stroke-miterlimit="10" d="M47.154,50.526c0,2.406-2.157,4.356-4.819,4.356H23.665c-2.661,0-4.819-1.951-4.819-4.356V17.851c0-2.406,2.157-4.356,4.819-4.356h18.671c2.661,0,4.819,1.951,4.819,4.356V50.526z"/><line fill="none" stroke="#FFFFFF" stroke-width="2" stroke-miterlimit="10" x1="24.297" y1="26.907" x2="41.703" y2="26.907"/><line fill="none" stroke="#FFFFFF" stroke-width="2" stroke-miterlimit="10" x1="24.297" y1="34.668" x2="41.703" y2="34.668"/><line fill="none" stroke="#FFFFFF" stroke-width="2" stroke-miterlimit="10" x1="24.297" y1="42.429" x2="41.703" y2="42.429"/><line fill="none" stroke="#FFFFFF" stroke-width="2" stroke-miterlimit="10" x1="33" y1="13.495" x2="33" y2="9.279"/><line fill="none" stroke="#FFFFFF" stroke-width="2" stroke-miterlimit="10" x1="39" y1="13.495" x2="39" y2="9.279"/><line fill="none" stroke="#FFFFFF" stroke-width="2" stroke-miterlimit="10" x1="27" y1="13.495" x2="27" y2="9.279"/></svg>
